HIERARCHY
ROOT Hips
{
	OFFSET 0.000000 0.000000 0.000000
	CHANNELS 6 Xposition Yposition Zposition Xrotation Yrotation Zrotation
	JOINT LeftUpLeg_virtual
	{
		OFFSET 0.000000 0.000000 0.000000
		CHANNELS 3 Xrotation Yrotation Zrotation
		JOINT LeftUpLeg
		{
			OFFSET 13.026900 -6.336304 -1.092800
			CHANNELS 3 Xrotation Yrotation Zrotation
			JOINT LeftLeg
			{
				OFFSET 0.524474 -46.096886 9.782700
				CHANNELS 3 Xrotation Yrotation Zrotation
				JOINT LeftFoot
				{
					OFFSET -0.524474 -53.427422 -12.948200
					CHANNELS 3 Xrotation Yrotation Zrotation
					JOINT LeftToeBase
					{
						OFFSET 0.192200 -14.009700 16.364100
						CHANNELS 3 Xrotation Yrotation Zrotation
						JOINT LeftToe_End
						{
							OFFSET -1.784700 -0.561700 9.474800
							CHANNELS 3 Xrotation Yrotation Zrotation
							End Site
							{
								OFFSET 0 0 0
							}
						}
					}
				}
			}
		}
	}
	JOINT RightUpLeg_virtual
	{
		OFFSET 0.000000 0.000000 0.000000
		CHANNELS 3 Xrotation Yrotation Zrotation
		JOINT RightUpLeg
		{
			OFFSET -12.883000 -6.336304 -1.092800
			CHANNELS 3 Xrotation Yrotation Zrotation
			JOINT RightLeg
			{
				OFFSET -0.524587 -46.096825 9.782800
				CHANNELS 3 Xrotation Yrotation Zrotation
				JOINT RightFoot
				{
					OFFSET 0.524587 -53.427383 -12.948300
					CHANNELS 3 Xrotation Yrotation Zrotation
					JOINT RightToeBase
					{
						OFFSET -0.192200 -14.009700 16.364100
						CHANNELS 3 Xrotation Yrotation Zrotation
						JOINT RightToe_End
						{
							OFFSET 1.784700 -0.561700 9.474800
							CHANNELS 3 Xrotation Yrotation Zrotation
							End Site
							{
								OFFSET 0 0 0
							}
						}
					}
				}
			}
		}
	}
	JOINT Spine_virtual
	{
		OFFSET 0.000000 0.000000 0.000000
		CHANNELS 3 Xrotation Yrotation Zrotation
		JOINT Spine
		{
			OFFSET 0.072000 7.257294 -0.789700
			CHANNELS 3 Xrotation Yrotation Zrotation
			JOINT Spine1
			{
				OFFSET 0.000000 12.508769 -0.658067
				CHANNELS 3 Xrotation Yrotation Zrotation
				JOINT Spine1_split
				{
					OFFSET 0.000000 12.508769 -0.658067
					CHANNELS 3 Xrotation Yrotation Zrotation
					JOINT Spine2
					{
						OFFSET 0.000000 12.508769 -0.658067
						CHANNELS 3 Xrotation Yrotation Zrotation
						JOINT Neck_virtual
						{
							OFFSET 0.000000 0.000000 0.000000
							CHANNELS 3 Xrotation Yrotation Zrotation
							JOINT Neck
							{
								OFFSET 0.000000 14.033295 7.520400
								CHANNELS 3 Xrotation Yrotation Zrotation
								JOINT Head
								{
									OFFSET 0.000000 8.198502 5.703100
									CHANNELS 3 Xrotation Yrotation Zrotation
									JOINT HeadTop_End
									{
										OFFSET 0.000000 17.760803 13.332701
										CHANNELS 3 Xrotation Yrotation Zrotation
										End Site
										{
											OFFSET 0 0 0
										}
									}
								}
							}
						}
						JOINT LeftShoulder_virtual
						{
							OFFSET 0.000000 0.000000 0.000000
							CHANNELS 3 Xrotation Yrotation Zrotation
							JOINT LeftShoulder
							{
								OFFSET 6.292450 5.785301 -0.669000
								CHANNELS 3 Xrotation Yrotation Zrotation
								JOINT LeftShoulder_split
								{
									OFFSET 6.292450 5.785301 -0.669000
									CHANNELS 3 Xrotation Yrotation Zrotation
									JOINT LeftArm
									{
										OFFSET 13.907140 -6.093903 1.965100
										CHANNELS 3 Xrotation Yrotation Zrotation
										JOINT LeftForeArm
										{
											OFFSET 34.140198 0.000000 0.000000
											CHANNELS 3 Xrotation Yrotation Zrotation
											JOINT LeftHand
											{
												OFFSET 40.960209 0.000000 0.000000
												CHANNELS 3 Xrotation Yrotation Zrotation
												End Site
												{
													OFFSET 0 0 0
												}
											}
										}
									}
								}
							}
						}
						JOINT RightShoulder_virtual
						{
							OFFSET 0.000000 0.000000 0.000000
							CHANNELS 3 Xrotation Yrotation Zrotation
							JOINT RightShoulder
							{
								OFFSET -6.292450 5.785301 -0.669000
								CHANNELS 3 Xrotation Yrotation Zrotation
								JOINT RightShoulder_split
								{
									OFFSET -6.292450 5.785301 -0.669000
									CHANNELS 3 Xrotation Yrotation Zrotation
									JOINT RightArm
									{
										OFFSET -13.907140 -6.093903 1.965100
										CHANNELS 3 Xrotation Yrotation Zrotation
										JOINT RightForeArm
										{
											OFFSET -34.140198 0.000000 0.000000
											CHANNELS 3 Xrotation Yrotation Zrotation
											JOINT RightHand
											{
												OFFSET -40.960209 0.000000 0.000000
												CHANNELS 3 Xrotation Yrotation Zrotation
												End Site
												{
													OFFSET 0 0 0
												}
											}
										}
									}
								}
							}
						}
					}
				}
			}
		}
	}
}
MOTION
Frames: 4
Frame Time: 0.03333333
-0.411443 117.266930 0.643921 0.000000 0.000000 0.000000 0.913280 0.496570 0.110241 -9.274192 -1.808555 11.084998 13.520281 0.838363 -1.030516 -4.554589 11.418508 -6.625710 0.074668 0.165277 -1.213570 0.000000 0.000000 0.000000 1.861846 -0.284884 0.135303 -10.107947 -3.297738 -9.634504 13.844548 1.654374 -1.086131 -3.386071 -11.322160 9.617916 -2.223672 -0.137033 0.416616 0.000000 0.000000 0.000000 1.700168 -0.763964 -0.289609 3.161323 0.089399 1.593411 3.277447 0.030895 0.287929 0.966291 0.195818 0.159309 0.000000 0.000000 0.000000 2.729635 0.111885 0.073660 -2.939789 -0.327699 0.236809 -0.836221 -1.174763 1.707847 0.000000 0.000000 0.000000 2.648119 0.140609 0.254707 1.272915 9.733917 -13.138402 -0.600049 -2.178394 -0.542413 12.129733 -5.576028 -52.932310 -0.585594 -32.434120 0.759370 0.000000 0.000000 0.000000 2.636355 0.056796 0.324301 1.659738 -9.811843 11.402287 1.044980 2.091186 -1.918717 1.951654 17.514091 63.588296 2.110390 25.176658 0.196312 0.000000 0.000000 0.000000 
0.212976 117.101082 0.232445 0.000000 0.000000 0.000000 1.020390 0.148649 0.160571 -9.462536 -1.808546 10.787595 13.456924 0.899079 -1.094658 -4.969167 10.987082 -6.751331 -0.015272 0.159758 -1.203227 0.000000 0.000000 0.000000 1.844440 -0.376767 0.203086 -10.291404 -3.421468 -9.905233 13.766162 1.551610 -1.083012 -3.527294 -11.279032 9.644067 -2.528722 -0.161431 0.387700 0.000000 0.000000 0.000000 1.765943 -0.951517 -0.293670 3.203878 0.060680 1.660145 3.299307 -0.002490 0.280279 1.100644 -0.018298 0.084649 0.000000 0.000000 0.000000 2.778505 0.104282 0.062064 -2.939931 -0.240475 0.117627 -0.740431 -1.093923 1.648818 0.000000 0.000000 0.000000 2.701677 0.107808 0.234358 1.256120 9.491500 -13.090033 -0.608998 -1.987659 -0.499785 11.924441 -5.991220 -53.127090 -0.574045 -32.606749 0.773260 0.000000 0.000000 0.000000 2.680061 0.038683 0.334463 1.677100 -9.554787 11.513044 1.046843 2.145852 -1.962284 1.871050 17.523684 63.498964 2.138510 24.908578 0.243768 0.000000 0.000000 0.000000 
1.304671 116.725632 -0.171356 0.000000 0.000000 0.000000 1.060319 -0.336607 0.140624 -10.061356 -1.763252 10.416132 14.263873 0.557073 -1.274167 -5.393572 9.818526 -7.069031 -0.182824 0.131014 -1.081502 0.000000 0.000000 0.000000 1.749655 -0.547520 0.218222 -10.458406 -3.332683 -10.343856 13.861114 1.538977 -1.097181 -3.636670 -11.126043 10.069288 -2.743265 -0.148147 0.235534 0.000000 0.000000 0.000000 1.895099 -1.285673 -0.296414 3.315060 -0.040044 1.719186 3.245515 -0.049452 0.254181 1.126746 -0.060271 0.001841 0.000000 0.000000 0.000000 2.762173 0.069902 0.037349 -2.868884 -0.104267 -0.022843 -0.600447 -0.971344 1.596684 0.000000 0.000000 0.000000 2.685742 0.061868 0.207824 1.227014 8.997334 -13.051224 -0.523377 -1.726376 -0.400716 11.666721 -6.773056 -53.384793 -0.448104 -32.608375 0.793552 0.000000 0.000000 0.000000 2.673248 -0.002957 0.338058 1.698697 -8.982856 11.877781 0.956567 2.058240 -2.143155 1.660394 17.644590 63.089938 2.109949 24.230864 0.296173 0.000000 0.000000 0.000000 
2.725383 116.162346 -0.346786 0.000000 0.000000 0.000000 1.106275 -0.833153 0.063533 -10.991288 -1.703576 10.035164 15.702327 0.070260 -1.516876 -5.896251 8.207320 -7.249734 -0.220694 0.082699 -0.888547 0.000000 0.000000 0.000000 1.698078 -0.772942 0.149538 -10.618202 -3.097710 -10.901622 14.054488 1.604513 -1.092087 -3.701737 -10.872394 10.755262 -2.799298 -0.088450 -0.025601 0.000000 0.000000 0.000000 2.066436 -1.682141 -0.320532 3.474833 -0.207623 1.763089 3.122550 -0.105177 0.217863 1.011118 0.013018 -0.022776 0.000000 0.000000 0.000000 2.693032 0.012557 0.009840 -2.717744 0.058174 -0.162313 -0.447495 -0.852608 1.589863 0.000000 0.000000 0.000000 2.601860 0.008498 0.185352 1.190122 8.337079 -13.000533 -0.459322 -1.364990 -0.306329 11.387819 -7.777043 -53.698001 -0.247225 -32.428352 0.806585 0.000000 0.000000 0.000000 2.609766 -0.068693 0.330352 1.719769 -8.171786 12.394220 0.818049 1.883207 -2.396028 1.304148 17.803032 62.444089 2.030554 23.325542 0.355029 0.000000 0.000000 0.000000 
